<svg width="178" height="202" viewBox="0 0 178 202" fill="none" xmlns="http://www.w3.org/2000/svg">
<path d="M165.437 119.305C153.556 163.404 128.403 202 82.7186 202C37.0344 202 0 164.976 0 119.305C0 73.6332 48.1514 66.4698 82.7186 36.6092C152.914 -24.0287 202.335 -17.6461 165.437 119.305Z" fill="#F2F2F2"/>
<path d="M92.3182 171.125C114.911 171.125 133.227 152.813 133.227 130.225C133.227 107.636 114.911 89.3242 92.3182 89.3242C69.725 89.3242 51.4097 107.636 51.4097 130.225C51.4097 152.813 69.725 171.125 92.3182 171.125Z" fill="#2F2E41"/>
<path d="M86.1042 162.324H73.6763V184.586H86.1042V162.324Z" fill="#2F2E41"/>
<path d="M110.96 162.324H98.5322V184.586H110.96V162.324Z" fill="#2F2E41"/>
<path d="M84.0329 188.728C89.7526 188.728 94.3894 186.989 94.3894 184.845C94.3894 182.7 89.7526 180.962 84.0329 180.962C78.3131 180.962 73.6763 182.7 73.6763 184.845C73.6763 186.989 78.3131 188.728 84.0329 188.728Z" fill="#2F2E41"/>
<path d="M108.889 188.21C114.609 188.21 119.245 186.472 119.245 184.327C119.245 182.183 114.609 180.444 108.889 180.444C103.169 180.444 98.5322 182.183 98.5322 184.327C98.5322 186.472 103.169 188.21 108.889 188.21Z" fill="#2F2E41"/>
<path d="M93.3539 133.849C101.076 133.849 107.335 127.59 107.335 119.87C107.335 112.15 101.076 105.892 93.3539 105.892C85.6322 105.892 79.3726 112.15 79.3726 119.87C79.3726 127.59 85.6322 133.849 93.3539 133.849Z" fill="white"/>
<path d="M93.3538 124.53C95.9277 124.53 98.0143 122.444 98.0143 119.87C98.0143 117.297 95.9277 115.211 93.3538 115.211C90.7799 115.211 88.6934 117.297 88.6934 119.87C88.6934 122.444 90.7799 124.53 93.3538 124.53Z" fill="#3F3D56"/>
<path d="M54.6268 92.1882C51.3236 77.398 61.8825 62.4531 78.2108 58.8078C94.539 55.1626 110.453 64.1974 113.757 78.9876C117.06 93.7779 106.238 99.2327 89.9102 102.878C73.5819 106.523 57.9299 106.978 54.6268 92.1882Z" fill="#72A9B1"/>
<path d="M66.7136 120.01C68.2333 116.807 61.1911 110.286 50.9843 105.446C40.7776 100.606 31.2714 99.2795 29.7517 102.483C28.232 105.687 35.2742 112.207 45.481 117.047C55.6877 121.887 65.1939 123.214 66.7136 120.01Z" fill="#2F2E41"/>
<path d="M72.2241 144.98C72.2241 148.983 82.5334 156.888 93.9729 156.888C105.412 156.888 116.138 145.618 116.138 141.615C116.138 137.611 105.412 142.391 93.9729 142.391C82.5334 142.391 72.2241 140.977 72.2241 144.98Z" fill="white"/>
<path d="M133.708 100.342C137.742 89.7921 138.326 80.2135 135.013 78.9476C131.701 77.6817 125.746 85.2079 121.712 95.7579C117.679 106.308 117.095 115.887 120.408 117.152C123.72 118.418 129.675 110.892 133.708 100.342Z" fill="#2F2E41"/>
</svg>
