<?xml version="1.0" encoding="utf-8"?>
<!-- Generator: Adobe Illustrator 16.0.0, SVG Export Plug-In . SVG Version: 6.00 Build 0)  -->
<!DOCTYPE svg PUBLIC "-//W3C//DTD SVG 1.0//EN" "http://www.w3.org/TR/2001/REC-SVG-20010904/DTD/svg10.dtd">
<svg version="1.0" id="Layer_1" xmlns="http://www.w3.org/2000/svg" xmlns:xlink="http://www.w3.org/1999/xlink" x="0px" y="0px"
	 width="177px" height="201.5px" viewBox="0 -59.5 177 201.5" enable-background="new 0 -59.5 177 201.5" xml:space="preserve">
<path fill="#3F3D56" d="M88.031,141.947c48.618,0,88.032-5.361,88.032-11.973c0-6.613-39.414-11.975-88.032-11.975
	C39.413,118,0,123.361,0,129.975C0,136.586,39.413,141.947,88.031,141.947z"/>
<path fill="#2F2E41" d="M91.908,113.125c22.594,0,40.908-18.312,40.908-40.9s-18.314-40.9-40.908-40.9
	C69.315,31.324,51,49.636,51,72.225S69.315,113.125,91.908,113.125z"/>
<path fill="#2F2E41" d="M85.694,104.324H73.267v22.262h12.428V104.324z"/>
<path fill="#2F2E41" d="M110.55,104.324H98.123v22.262h12.427V104.324z"/>
<path fill="#2F2E41" d="M83.623,130.729c5.72,0,10.357-1.739,10.357-3.884s-4.638-3.883-10.357-3.883s-10.356,1.738-10.356,3.883
	S77.903,130.729,83.623,130.729z"/>
<path fill="#2F2E41" d="M108.479,130.21c5.721,0,10.357-1.737,10.357-3.883c0-2.144-4.637-3.884-10.357-3.884
	c-5.72,0-10.355,1.74-10.355,3.884C98.123,128.473,102.759,130.21,108.479,130.21z"/>
<path fill="#FFFFFF" d="M92.944,75.849c7.722,0,13.981-6.258,13.981-13.979s-6.26-13.979-13.981-13.979S78.963,54.15,78.963,61.87
	S85.223,75.849,92.944,75.849z"/>
<path fill="#3F3D56" d="M92.944,66.529c2.573,0,4.66-2.086,4.66-4.659s-2.087-4.66-4.66-4.66c-2.574,0-4.661,2.086-4.661,4.66
	S90.37,66.529,92.944,66.529z"/>
<path fill="#72A9B1" d="M52.226,34.188C48.923,19.398,59.481,4.453,75.81,0.808c16.329-3.645,32.243,5.39,35.545,20.18
	c3.304,14.79-7.518,20.245-23.846,23.89C71.181,48.523,55.529,48.979,52.226,34.188z"/>
</svg>
