<svg width="464" height="222" viewBox="0 0 464 222" fill="none" xmlns="http://www.w3.org/2000/svg">
<path d="M463.309 0H0V188.926H463.309V0Z" fill="#3F3D56"/>
<path d="M66.5871 70.3327H32.045C29.6878 56.7111 29.6878 42.7862 32.045 29.1647H66.5871C62.6957 42.6117 62.6957 56.8857 66.5871 70.3327Z" fill="#FF6584"/>
<path d="M96.4915 87.8689H131.034C133.391 74.2474 133.391 60.3224 131.034 46.7009H96.4915C100.383 60.1479 100.383 74.4219 96.4915 87.8689Z" fill="#72A9B1"/>
<path d="M173.292 27.4733C178.965 56.0473 180.58 85.278 178.09 114.303C177.435 121.86 176.5 129.385 175.284 136.879C174.729 140.286 174.098 143.676 173.449 147.066C173.077 149.009 172.297 151.427 173.519 153.255C175.898 156.816 184.054 155.887 187.648 156.003C195.124 156.245 202.611 156.285 210.09 156.416L232.591 156.808L243.424 156.997C247.115 157.062 251.158 157.634 254.82 157.162C259.64 156.541 258.466 151.495 258.393 147.747C258.248 140.336 258.051 132.927 257.8 125.519C256.806 96.163 254.975 66.8509 252.309 37.5831C251.968 33.8492 252.181 29.382 251.175 25.7717C250.768 24.3121 250.363 23.8901 248.777 23.6279C245.145 23.0274 240.816 23.6598 237.141 23.6853L224.851 23.7708L174.875 24.1185C174.55 24.1297 174.242 24.2668 174.016 24.5007C173.79 24.7346 173.663 25.0471 173.663 25.3724C173.663 25.6976 173.79 26.0102 174.016 26.2441C174.242 26.478 174.55 26.6151 174.875 26.6263L215.839 26.3414L233.864 26.216L243.695 26.1476C245.716 26.1335 247.604 25.522 248.871 27.7443C249.673 29.1504 249.345 32.6667 249.497 34.3028C251.945 60.5424 253.72 86.8331 254.824 113.175C255.099 119.757 255.333 126.342 255.524 132.927C255.604 135.671 255.676 138.416 255.742 141.16C255.781 142.807 255.817 144.453 255.851 146.1C255.886 147.799 256.589 151.127 255.972 152.687C254.656 156.014 248.792 154.583 245.924 154.533L235.924 154.359L215.924 154.01L195.923 153.661C192.616 153.603 189.306 153.578 186.001 153.437C184.905 153.39 183.807 153.338 182.712 153.26C179.452 153.028 175.943 153.798 175.555 149.294C175.316 146.515 176.836 142.682 177.311 139.902C177.848 136.762 178.335 133.615 178.773 130.46C179.592 124.565 180.245 118.65 180.732 112.716C183.029 83.9849 181.339 55.0746 175.711 26.8066C175.398 25.2248 172.98 25.8944 173.292 27.4733V27.4733Z" fill="#F1F1F1"/>
<path d="M338.043 27.4733C343.717 56.0473 345.332 85.278 342.841 114.303C342.186 121.86 341.251 129.385 340.035 136.879C339.481 140.286 338.849 143.676 338.2 147.066C337.828 149.009 337.048 151.427 338.27 153.255C340.65 156.816 348.805 155.887 352.399 156.003C359.875 156.245 367.362 156.285 374.841 156.416L397.342 156.808L408.175 156.997C411.867 157.062 415.909 157.634 419.571 157.162C424.391 156.541 423.217 151.495 423.144 147.747C423 140.336 422.802 132.927 422.551 125.519C421.557 96.163 419.726 66.8509 417.06 37.5831C416.72 33.8492 416.932 29.382 415.926 25.7717C415.519 24.3121 415.114 23.8901 413.529 23.6279C409.896 23.0274 405.567 23.6598 401.892 23.6853L389.603 23.7708L339.626 24.1185C339.301 24.1297 338.993 24.2668 338.767 24.5007C338.541 24.7346 338.415 25.0471 338.415 25.3724C338.415 25.6976 338.541 26.0102 338.767 26.2441C338.993 26.478 339.301 26.6151 339.626 26.6263L380.59 26.3414L398.615 26.216L408.446 26.1476C410.467 26.1335 412.355 25.522 413.623 27.7443C414.424 29.1504 414.096 32.6667 414.248 34.3028C416.696 60.5424 418.472 86.8331 419.575 113.175C419.85 119.757 420.084 126.342 420.275 132.927C420.355 135.671 420.428 138.416 420.493 141.16C420.532 142.807 420.568 144.453 420.602 146.1C420.637 147.799 421.34 151.127 420.723 152.687C419.408 156.014 413.543 154.583 410.675 154.533L400.675 154.359L380.675 154.01L360.675 153.661C357.368 153.603 354.057 153.578 350.752 153.437C349.656 153.39 348.558 153.338 347.463 153.26C344.203 153.028 340.694 153.798 340.306 149.294C340.067 146.515 341.588 142.682 342.063 139.902C342.599 136.762 343.086 133.615 343.524 130.46C344.344 124.565 344.997 118.65 345.483 112.716C347.78 83.9849 346.09 55.0746 340.463 26.8066C340.15 25.2248 337.731 25.8944 338.043 27.4733V27.4733Z" fill="#F1F1F1"/>
<path d="M184.828 33.9286H201.422C201.748 33.9174 202.056 33.7803 202.282 33.5464C202.508 33.3125 202.634 32.9999 202.634 32.6747C202.634 32.3495 202.508 32.0369 202.282 31.803C202.056 31.5691 201.748 31.432 201.422 31.4208H184.828C184.503 31.432 184.195 31.5691 183.969 31.803C183.743 32.0369 183.616 32.3495 183.616 32.6747C183.616 32.9999 183.743 33.3125 183.969 33.5464C184.195 33.7803 184.503 33.9174 184.828 33.9286Z" fill="#F1F1F1"/>
<path d="M184.827 39.5858L200.469 38.9948C202.079 38.934 202.086 36.4258 200.469 36.4869L184.827 37.078C183.218 37.1388 183.21 39.6469 184.827 39.5858Z" fill="#F1F1F1"/>
<path d="M184.828 44.3548H200C200.325 44.3435 200.633 44.2065 200.859 43.9725C201.085 43.7386 201.212 43.4261 201.212 43.1009C201.212 42.7756 201.085 42.4631 200.859 42.2291C200.633 41.9952 200.325 41.8582 200 41.8469H184.828C184.503 41.8582 184.195 41.9952 183.969 42.2291C183.743 42.4631 183.616 42.7756 183.616 43.1009C183.616 43.4261 183.743 43.7386 183.969 43.9725C184.195 44.2065 184.503 44.3435 184.828 44.3548Z" fill="#F1F1F1"/>
<path d="M235.106 32.751C231.7 30.9748 228.609 33.8955 228.13 37.2324C227.895 38.8641 227.845 41.0941 228.885 42.4802C229.947 43.8956 231.989 44.4891 233.686 44.5938C236.924 44.7936 240.37 42.9878 241.167 39.6727C241.542 38.2009 241.359 36.6424 240.653 35.2976C239.946 33.9529 238.767 32.9173 237.341 32.3907C235.813 31.8612 235.156 34.2829 236.674 34.809C237.378 35.1015 237.968 35.6147 238.356 36.2713C238.743 36.9279 238.906 37.6924 238.821 38.4498C238.721 39.3209 238.34 40.1356 237.735 40.7701C237.13 41.4047 236.334 41.8244 235.468 41.9655C233.397 42.4416 230.97 41.9306 230.57 39.5956C230.271 37.8488 231.22 33.5501 233.839 34.9165C235.269 35.6622 236.539 33.4987 235.106 32.751V32.751Z" fill="#F1F1F1"/>
<path d="M349.579 33.9286H366.173C366.499 33.9174 366.807 33.7803 367.033 33.5464C367.259 33.3125 367.385 32.9999 367.385 32.6747C367.385 32.3495 367.259 32.0369 367.033 31.803C366.807 31.5691 366.499 31.432 366.173 31.4208H349.579C349.254 31.432 348.946 31.5691 348.72 31.803C348.494 32.0369 348.367 32.3495 348.367 32.6747C348.367 32.9999 348.494 33.3125 348.72 33.5464C348.946 33.7803 349.254 33.9174 349.579 33.9286Z" fill="#F1F1F1"/>
<path d="M349.579 39.5858L365.22 38.9948C366.83 38.934 366.837 36.4258 365.22 36.4869L349.579 37.078C347.969 37.1388 347.961 39.6469 349.579 39.5858Z" fill="#F1F1F1"/>
<path d="M349.579 44.3548H364.751C365.076 44.3435 365.384 44.2065 365.61 43.9725C365.836 43.7386 365.963 43.4261 365.963 43.1009C365.963 42.7756 365.836 42.4631 365.61 42.2291C365.384 41.9952 365.076 41.8582 364.751 41.8469H349.579C349.254 41.8582 348.946 41.9952 348.72 42.2291C348.494 42.4631 348.367 42.7756 348.367 43.1009C348.367 43.4261 348.494 43.7386 348.72 43.9725C348.946 44.2065 349.254 44.3435 349.579 44.3548Z" fill="#F1F1F1"/>
<path d="M399.857 32.751C396.451 30.9748 393.36 33.8955 392.881 37.2324C392.646 38.8641 392.596 41.0941 393.636 42.4802C394.698 43.8956 396.74 44.4891 398.437 44.5938C401.675 44.7936 405.121 42.9878 405.918 39.6727C406.293 38.2009 406.11 36.6424 405.404 35.2976C404.697 33.9529 403.518 32.9173 402.092 32.3907C400.564 31.8612 399.907 34.2829 401.426 34.809C402.13 35.1015 402.72 35.6147 403.107 36.2713C403.494 36.9279 403.657 37.6924 403.572 38.4498C403.472 39.3209 403.091 40.1356 402.486 40.7701C401.881 41.4047 401.085 41.8244 400.219 41.9655C398.148 42.4416 395.722 41.9306 395.321 39.5956C395.022 37.8488 395.971 33.5501 398.59 34.9165C400.02 35.6622 401.29 33.4987 399.857 32.751V32.751Z" fill="#F1F1F1"/>
<path d="M188.147 58.1077C206.4 58.2995 224.634 57.7362 242.849 56.4177L241.64 54.8304C238.658 62.3824 238.74 70.3421 239.135 78.3311C239.234 80.3327 239.862 83.0319 239.456 85.0144C238.945 87.5076 236.706 86.9115 234.479 86.9835C229.575 87.142 224.669 87.256 219.762 87.3253C215.128 87.3907 210.494 87.4165 205.859 87.4026C203.678 87.3958 201.497 87.3803 199.316 87.3562C196.755 87.3277 193.844 88.071 193.183 85.1058C192.759 83.2065 193.186 80.7082 193.187 78.7549L193.192 71.6102L193.201 57.3206C193.19 56.9956 193.053 56.6876 192.819 56.4616C192.585 56.2357 192.272 56.1094 191.947 56.1094C191.621 56.1094 191.309 56.2357 191.075 56.4616C190.841 56.6876 190.704 56.9956 190.692 57.3206L190.681 74.7856L190.675 82.7242C190.674 84.3011 190.347 86.2062 190.936 87.7032C192.29 91.1467 198.145 89.8548 200.952 89.8806C206.676 89.9333 212.401 89.9246 218.126 89.8546C223.851 89.7853 229.575 89.6554 235.297 89.4649C237.762 89.3829 241.173 89.9434 241.921 86.9043C242.445 84.7737 241.834 81.9956 241.722 79.8214C241.595 77.3402 241.457 74.8584 241.424 72.3737C241.346 66.5715 241.915 60.9268 244.059 55.4971C244.109 55.311 244.116 55.1158 244.079 54.9267C244.041 54.7375 243.961 54.5594 243.845 54.4061C243.728 54.2528 243.577 54.1283 243.405 54.0422C243.232 53.9562 243.042 53.9109 242.849 53.9098C224.643 55.228 206.409 55.7913 188.147 55.5998C187.822 55.611 187.514 55.7481 187.288 55.982C187.062 56.2159 186.936 56.5285 186.936 56.8537C186.936 57.1789 187.062 57.4915 187.288 57.7254C187.514 57.9593 187.822 58.0964 188.147 58.1076L188.147 58.1077Z" fill="#F1F1F1"/>
<path d="M193.349 59.4705C201.162 62.2344 208.779 65.5226 216.149 69.3125C222.761 72.7282 231.417 76.4594 235.968 82.5643C236.922 83.8437 239.1 82.5947 238.134 81.2985C233.487 75.0645 225.488 71.3964 218.768 67.8531C210.786 63.6659 202.515 60.0564 194.016 57.0523C192.492 56.5099 191.836 58.9321 193.349 59.4705Z" fill="#F1F1F1"/>
<path d="M242.423 55.0044C234.132 58.5482 227.108 65.3761 219.699 70.4353C211.679 75.9115 203.421 81.0079 194.924 85.7244C193.514 86.5113 194.777 88.6783 196.19 87.8898C204.669 83.1571 212.927 78.0607 220.965 72.6008C228.373 67.5425 235.4 60.7128 243.689 57.1698C245.169 56.5372 243.892 54.3762 242.423 55.0044V55.0044Z" fill="#F1F1F1"/>
<path d="M352.897 58.1077C371.15 58.2995 389.384 57.7362 407.599 56.4177L406.39 54.8304C403.408 62.3824 403.49 70.3421 403.885 78.3311C403.984 80.3327 404.613 83.0319 404.206 85.0144C403.695 87.5076 401.456 86.9115 399.23 86.9835C394.325 87.142 389.419 87.256 384.512 87.3253C379.878 87.3907 375.244 87.4165 370.609 87.4026C368.428 87.3958 366.247 87.3803 364.066 87.3562C361.505 87.3277 358.594 88.071 357.933 85.1058C357.509 83.2065 357.936 80.7082 357.937 78.7549L357.942 71.6102L357.951 57.3206C357.94 56.9956 357.803 56.6876 357.569 56.4616C357.335 56.2357 357.022 56.1094 356.697 56.1094C356.371 56.1094 356.059 56.2357 355.825 56.4616C355.591 56.6876 355.454 56.9956 355.442 57.3206L355.431 74.7856L355.425 82.7242C355.424 84.3011 355.097 86.2062 355.686 87.7032C357.04 91.1467 362.895 89.8548 365.702 89.8806C371.426 89.9333 377.151 89.9246 382.877 89.8546C388.601 89.7853 394.325 89.6554 400.047 89.4649C402.512 89.3829 405.923 89.9434 406.671 86.9043C407.195 84.7737 406.584 81.9956 406.472 79.8214C406.345 77.3402 406.207 74.8584 406.174 72.3737C406.096 66.5715 406.665 60.9268 408.809 55.4971C408.859 55.311 408.866 55.1158 408.829 54.9267C408.791 54.7375 408.711 54.5594 408.595 54.4061C408.478 54.2528 408.327 54.1283 408.155 54.0422C407.982 53.9562 407.792 53.9109 407.599 53.9098C389.393 55.228 371.159 55.7913 352.897 55.5998C352.572 55.611 352.264 55.7481 352.038 55.982C351.812 56.2159 351.686 56.5285 351.686 56.8537C351.686 57.1789 351.812 57.4915 352.038 57.7254C352.264 57.9593 352.572 58.0964 352.897 58.1076L352.897 58.1077Z" fill="#F1F1F1"/>
<path d="M358.1 59.4705C365.913 62.2344 373.531 65.5226 380.9 69.3125C387.512 72.7282 396.168 76.4594 400.719 82.5643C401.673 83.8437 403.851 82.5947 402.885 81.2985C398.239 75.0645 390.239 71.3964 383.519 67.8531C375.538 63.6659 367.266 60.0564 358.767 57.0523C357.243 56.5099 356.587 58.9321 358.1 59.4705Z" fill="#F1F1F1"/>
<path d="M407.174 55.0044C398.883 58.5482 391.859 65.3761 384.45 70.4353C376.43 75.9115 368.172 81.0079 359.675 85.7244C358.265 86.5113 359.528 88.6783 360.941 87.8898C369.42 83.1571 377.678 78.0607 385.716 72.6008C393.124 67.5425 400.151 60.7128 408.44 57.1698C409.92 56.5372 408.643 54.3762 407.174 55.0044V55.0044Z" fill="#F1F1F1"/>
<path d="M352.897 108.265C371.15 108.457 389.384 107.893 407.599 106.575L406.39 104.988C403.408 112.54 403.49 120.499 403.885 128.488C403.984 130.49 404.613 133.189 404.206 135.172C403.695 137.665 401.456 137.069 399.23 137.141C394.325 137.299 389.419 137.413 384.512 137.483C379.878 137.548 375.244 137.574 370.609 137.56C368.428 137.553 366.247 137.538 364.066 137.514C361.505 137.485 358.594 138.228 357.933 135.263C357.509 133.364 357.936 130.866 357.937 128.912L357.942 121.767L357.951 107.478C357.94 107.153 357.803 106.845 357.569 106.619C357.335 106.393 357.022 106.267 356.697 106.267C356.371 106.267 356.059 106.393 355.825 106.619C355.591 106.845 355.454 107.153 355.442 107.478L355.431 124.943L355.425 132.882C355.424 134.458 355.097 136.363 355.686 137.86C357.04 141.304 362.895 140.012 365.702 140.038C371.426 140.091 377.151 140.082 382.877 140.012C388.601 139.943 394.325 139.813 400.047 139.622C402.512 139.54 405.923 140.101 406.671 137.062C407.195 134.931 406.584 132.153 406.472 129.979C406.345 127.498 406.207 125.016 406.174 122.531C406.096 116.729 406.665 111.084 408.809 105.654C408.859 105.468 408.866 105.273 408.829 105.084C408.791 104.895 408.711 104.717 408.595 104.563C408.478 104.41 408.327 104.286 408.155 104.2C407.982 104.114 407.792 104.068 407.599 104.067C389.393 105.385 371.159 105.949 352.897 105.757C352.572 105.768 352.264 105.905 352.038 106.139C351.812 106.373 351.686 106.686 351.686 107.011C351.686 107.336 351.812 107.649 352.038 107.883C352.264 108.117 352.572 108.254 352.897 108.265H352.897Z" fill="#F1F1F1"/>
<path d="M358.1 109.628C365.913 112.392 373.531 115.68 380.9 119.47C387.512 122.886 396.168 126.617 400.719 132.722C401.673 134.001 403.851 132.752 402.885 131.456C398.239 125.222 390.239 121.554 383.519 118.011C375.538 113.823 367.266 110.214 358.767 107.21C357.243 106.667 356.587 109.089 358.1 109.628Z" fill="#F1F1F1"/>
<path d="M407.174 105.162C398.883 108.706 391.859 115.533 384.45 120.593C376.43 126.069 368.172 131.165 359.675 135.882C358.265 136.669 359.528 138.836 360.941 138.047C369.42 133.314 377.678 128.218 385.716 122.758C393.124 117.7 400.151 110.87 408.44 107.327C409.92 106.695 408.643 104.534 407.174 105.162Z" fill="#F1F1F1"/>
<path d="M192.89 106.375C209.802 106.632 226.713 106.564 243.624 106.172C245.236 106.135 245.242 103.627 243.624 103.664C226.715 104.056 209.803 104.124 192.89 103.867C192.564 103.878 192.256 104.015 192.03 104.249C191.804 104.483 191.678 104.795 191.678 105.121C191.678 105.446 191.804 105.758 192.03 105.992C192.256 106.226 192.564 106.363 192.89 106.375Z" fill="#F1F1F1"/>
<path d="M194.312 117.745C211.698 118.022 229.084 117.948 246.469 117.521C248.081 117.481 248.087 114.973 246.469 115.013C229.086 115.44 211.7 115.514 194.312 115.237C192.697 115.211 192.697 117.719 194.312 117.745Z" fill="#F1F1F1"/>
<path d="M192.409 130.022L241.721 127.733C243.329 127.658 243.338 125.15 241.721 125.225L192.409 127.514C190.801 127.588 190.792 130.097 192.409 130.022Z" fill="#F1F1F1"/>
<path d="M269.222 94.5912H316.16C316.485 94.58 316.793 94.4429 317.019 94.209C317.245 93.9751 317.372 93.6625 317.372 93.3373C317.372 93.0121 317.245 92.6995 317.019 92.4656C316.793 92.2317 316.485 92.0946 316.16 92.0834H269.222C268.897 92.0946 268.588 92.2317 268.362 92.4656C268.136 92.6995 268.01 93.0121 268.01 93.3373C268.01 93.6625 268.136 93.9751 268.362 94.209C268.588 94.4429 268.897 94.58 269.222 94.5912Z" fill="#F1F1F1"/>
<path d="M314.104 80.2534L321.437 86.9444C322.276 87.7096 324.583 89.2894 325.104 90.2899C326.182 92.3585 325.024 91.8865 323.178 92.6034C318.641 94.4079 314.461 97.0026 310.831 100.267C309.617 101.336 311.397 103.104 312.605 102.04C315.915 99.0661 319.719 96.6911 323.845 95.0216C325.324 94.4366 328.131 94.0941 328.834 92.3325C329.694 90.1766 326.954 88.5858 325.656 87.4014L315.878 78.48C314.688 77.3938 312.908 79.1624 314.104 80.2533V80.2534Z" fill="#F1F1F1"/>
<path d="M200.192 178.152H234.734C237.091 164.531 237.091 150.606 234.734 136.984H200.192C204.084 150.431 204.084 164.705 200.192 178.152Z" fill="#72A9B1"/>
<path d="M56.3484 147.222H90.8905C93.2477 133.6 93.2477 119.675 90.8905 106.054H56.3484C60.2398 119.501 60.2398 133.775 56.3484 147.222Z" fill="#72A9B1"/>
<path d="M274.622 56.9386H309.164C311.522 43.3171 311.522 29.3921 309.164 15.7706H274.622C278.514 29.2176 278.514 43.4916 274.622 56.9386Z" fill="#72A9B1"/>
<path d="M105.148 221.826L138.11 211.504C136.286 197.801 132.122 184.513 125.798 172.219L92.8358 182.541C100.571 194.21 104.84 207.831 105.148 221.826Z" fill="#72A9B1"/>
</svg>
