<svg width="101" height="83" viewBox="0 0 101 83" fill="none" xmlns="http://www.w3.org/2000/svg">
<path d="M46.668 81.8406L41.9501 79.183L3.77202 57.7167L0.426036 55.8225C0.199388 55.6927 0.0727702 55.5519 0.0538843 55.4088C0.0349984 55.2657 0.124259 55.1233 0.316204 54.9902C0.508148 54.857 0.798768 54.736 1.17036 54.6345C1.54195 54.533 1.98674 54.4531 2.47761 54.3997C2.93712 54.3505 3.42817 54.3259 3.92365 54.3271L26.4999 54.3702C27.5315 54.3722 28.5215 54.264 29.2539 54.0692C29.9864 53.8744 30.4018 53.6089 30.4097 53.3306L30.5093 1.11246C30.5098 0.834064 30.9182 0.567733 31.6454 0.371556C32.3726 0.17538 33.3597 0.0652757 34.3913 0.0652541L66.2682 0.126036C67.3046 0.128012 68.2984 0.241014 69.0309 0.440189C69.7634 0.639363 70.1746 0.908394 70.174 1.18809L70.0745 53.4062C70.0812 53.6833 70.4919 53.9493 71.2176 54.1466C71.9432 54.3439 72.9256 54.4567 73.9524 54.4607L97.0311 54.5047C97.5266 54.5053 98.0175 54.5318 98.4769 54.5828C98.968 54.6383 99.4126 54.7202 99.7836 54.8235C100.155 54.9268 100.444 55.0492 100.635 55.1834C100.825 55.3176 100.912 55.4606 100.891 55.6039C100.87 55.7471 100.741 55.8875 100.512 56.0164L97.1084 57.8946L58.4468 79.2144L53.6686 81.8584C53.3432 82.0335 52.8425 82.1802 52.2229 82.2821C51.6034 82.384 50.8896 82.437 50.162 82.4352C49.4343 82.4333 48.7217 82.3767 48.1044 82.2716C47.4871 82.1666 46.9896 82.0173 46.668 81.8406V81.8406Z" fill="#FF6584"/>
</svg>
